<svg width="59" height="59" viewBox="0 0 59 59" fill="none" xmlns="http://www.w3.org/2000/svg">
<g clip-path="url(#clip0_1_864)">
<rect width="59" height="59" transform="matrix(-1 0 0 -1 59 59)" fill="white"/>
<path d="M14.6724 31.3404L41.9617 58.5541C42.8558 59.4452 44.3033 59.4437 45.1959 58.5495C46.0878 57.6554 46.0855 56.207 45.1913 55.3152L19.5264 29.7212L45.1922 4.1273C46.0863 3.23539 46.0886 1.78793 45.1968 0.893717C44.7494 0.445457 44.1632 0.221324 43.577 0.221324C42.9923 0.221324 42.4084 0.443958 41.9618 0.889106L14.6724 28.1022C14.2418 28.5306 14.0001 29.1137 14.0001 29.7212C14.0001 30.3287 14.2425 30.9111 14.6724 31.3404Z" fill="black"/>
</g>
<defs>
<clipPath id="clip0_1_864">
<rect width="59" height="59" fill="white" transform="matrix(-1 0 0 -1 59 59)"/>
</clipPath>
</defs>
</svg>
