<svg width="77" height="28" viewBox="0 0 77 28" fill="none" xmlns="http://www.w3.org/2000/svg">
<g clip-path="url(#clip0_1_1993)">
<path fill-rule="evenodd" clip-rule="evenodd" d="M14.0144 15.2071C6.40192 8.87128 0.663204 14.057 0.566406 21.6102C5.81422 15.9739 10.7163 18.7315 14.0144 15.2071ZM14.4845 16.4379C13.5304 27.8249 6.1945 18.5835 0.856799 22.572C3.82987 18.4019 9.49945 19.7471 14.4845 16.4379Z" fill="#00728F"/>
<path fill-rule="evenodd" clip-rule="evenodd" d="M15.6929 17.568C14.476 20.292 15.202 22.6394 18.1267 24.1662C20.0212 25.1549 22.0055 26.2579 23.8723 27.7309C20.6918 24.6908 19.9036 19.4849 15.6929 17.568ZM16.8891 17.0905C23.492 16.4919 28.0761 21.9466 25.4695 27.9999C21.6875 25.0136 21.6252 19.6867 16.8891 17.0905Z" fill="#00728F"/>
<path fill-rule="evenodd" clip-rule="evenodd" d="M14.5055 13.9832C14.7544 11.2256 13.7173 8.98583 12.0855 6.96805C10.924 5.52871 10.5506 3.21499 10.9724 0C6.76857 5.52198 8.51784 10.7547 14.5055 13.9832ZM11.401 0.558251C12.7424 3.57146 14.547 6.08023 16.7111 8.17872C17.9349 9.35575 17.2988 11.2323 15.9229 13.6133C16.0197 8.79078 10.4123 5.85828 11.401 0.558251Z" fill="#00728F"/>
<path d="M26.9161 15.167V14.7904C26.4183 14.7298 26.1141 14.5415 25.8237 13.9294C25.5195 13.2636 25.2844 12.6246 25.1185 12.2816C24.7659 11.5283 24.3303 11.2391 23.7426 11.0911V11.0575C23.9085 10.9566 24.3994 10.6203 24.7659 9.81991C25.2498 8.76394 25.4504 8.56889 25.8721 8.56889H26.0865C26.287 8.56889 26.5359 8.43437 26.5359 8.17878C26.5359 7.86939 26.287 7.64071 25.879 7.64071C25.3466 7.65416 25.0079 7.98373 24.676 8.77739C24.3026 9.69212 24.0883 10.1293 23.7702 10.4723C23.4176 10.8288 23.0304 10.9566 22.5257 10.9566V9.34909C22.5257 8.3402 22.6087 8.25949 23.383 8.19223V7.81558H20.168V8.19223C20.9562 8.25949 21.0391 8.3402 21.0391 9.34909V13.6201C21.0391 14.6424 20.9562 14.7164 20.168 14.7904V15.167H23.383V14.7904C22.6087 14.7231 22.5257 14.6424 22.5257 13.6133V11.3669C23.0996 11.3534 23.3761 11.6426 23.6665 12.5237C23.8878 13.1896 24.0883 13.8084 24.2335 14.1245C24.5308 14.824 24.8488 15.167 25.6578 15.167H26.9161ZM27.5246 7.81558V8.19223C28.2575 8.27295 28.3335 8.36711 28.3335 9.30201V13.7209C28.3335 14.6626 28.2506 14.75 27.4624 14.8307V15.1603H30.8088V14.8307C29.8892 14.75 29.8201 14.6558 29.8201 13.7209V12.1067L30.5046 12.2883C30.6359 12.2883 30.7535 12.2883 30.9194 12.2681C32.1571 12.1202 33.2287 11.4072 33.2287 9.9208C33.2287 9.15404 32.9107 8.58234 32.3783 8.23932C31.922 7.94337 31.3412 7.81558 30.4354 7.81558H27.5246ZM29.8201 8.69668C29.8201 8.51508 29.8408 8.38729 29.9376 8.33348C30.0068 8.27295 30.1174 8.23259 30.311 8.23259C30.9263 8.23259 31.6039 8.63614 31.6039 9.9746C31.6039 11.5216 30.712 11.7839 30.3663 11.7839C30.145 11.7839 29.9653 11.7368 29.8132 11.683V8.69668H29.8201ZM41.4081 15.167V14.7904C40.5992 14.7231 40.5162 14.6155 40.5162 13.6133V9.32219C40.5162 8.36038 40.613 8.26622 41.422 8.19896V7.82231H38.9052V7.95683C38.9052 8.05772 38.8845 8.17206 38.8015 8.32003L36.3055 13.9564H36.2848C36.347 12.6717 36.347 12.0193 36.347 11.5283V9.38945C36.347 8.36711 36.4438 8.26622 37.2182 8.19896V7.82231H33.9547V8.19896C34.7775 8.26622 34.8743 8.38056 34.8743 9.4029V13.5932C34.8743 14.6222 34.7913 14.7298 33.9686 14.7971V15.1737H36.4991V15.0392C36.4991 14.9047 36.4991 14.7635 36.5821 14.5819L39.0643 8.92536H39.0988C39.0504 10.136 39.0504 10.7145 39.0504 11.0777V13.6201C39.0504 14.6289 38.9675 14.7298 38.1931 14.7971V15.1737H41.4081V15.167ZM48.0941 13.2098C47.5894 14.2321 47.0017 14.8442 46.1651 14.8442C44.8929 14.8442 43.9387 13.425 43.9387 11.3736C43.9387 9.66521 44.7753 8.11825 46.1028 8.11825C46.8772 8.11825 47.5479 8.50835 47.9143 9.74592L48.3153 9.66521C48.2531 9.04643 48.1978 8.52853 48.1148 7.90302C47.7968 7.83576 47.0777 7.66089 46.3379 7.66089C43.8281 7.66089 42.2309 9.27511 42.2309 11.6023C42.2309 13.3914 43.2888 15.315 46.0475 15.315C46.7804 15.315 47.6516 15.1199 47.942 15.0392C48.1218 14.6491 48.3568 13.8487 48.4951 13.3443L48.0941 13.2098ZM55.029 9.6114C54.9806 8.91191 54.9252 7.99718 54.9114 7.52637H54.6279C54.4482 7.7416 54.2961 7.81558 54.0264 7.81558H49.954C49.6359 7.81558 49.5046 7.75505 49.3317 7.52637H49.0482C49.0344 8.09807 48.9653 8.89173 48.9169 9.64503H49.3179C49.4493 9.14059 49.5668 8.76394 49.7327 8.56889C49.9125 8.35366 50.1545 8.27295 50.8044 8.27295H51.2262V13.6873C51.2262 14.6289 51.1294 14.7164 50.2513 14.7836V15.1603H53.736V14.7836C52.8164 14.7164 52.7266 14.6222 52.7266 13.6873V8.27295H53.2589C53.7291 8.27295 54.0264 8.33348 54.2131 8.5218C54.3929 8.71686 54.5104 9.05988 54.6487 9.63158L55.029 9.6114ZM62.5515 15.167V14.7904C61.9016 14.7231 61.7633 14.5953 61.3969 13.5797C60.6778 11.609 60.0417 9.65176 59.3503 7.66761L58.7972 7.7954L56.5846 13.7277C56.2666 14.5953 56.0868 14.7231 55.4161 14.7904V15.167H57.8499V14.7904C57.0617 14.6895 57.0133 14.5482 57.1931 13.9429C57.3244 13.499 57.4489 13.1156 57.5457 12.8331H59.5577C59.696 13.2098 59.8412 13.6671 59.9449 14.0102C60.1316 14.5684 60.0763 14.7097 59.4471 14.7904V15.167H62.5515ZM59.371 12.248H57.7255C58.0089 11.4207 58.244 10.6136 58.5482 9.7661H58.5828L59.371 12.248ZM69.438 15.167V14.7904C68.6498 14.7231 68.5668 14.6155 68.5668 13.5999V9.16749C68.5668 8.3402 68.6498 8.25949 69.438 8.19223V7.81558H63.6232V8.19223C64.446 8.25277 64.6327 8.37383 64.6327 8.8581C64.6327 10.8624 64.3769 12.4968 63.9413 13.5528C63.6924 14.1514 63.4089 14.6155 62.8834 15.0056V15.2477C63.0217 15.3083 63.2844 15.3486 63.5679 15.3486C63.8375 15.3486 64.0657 15.1737 64.287 14.7836C64.9576 13.6604 65.2549 11.3265 65.2549 8.68995C65.2549 8.34693 65.3033 8.26622 65.6698 8.26622H66.7069C67.0595 8.26622 67.0734 8.3133 67.0734 8.83792V13.5932C67.0734 14.6155 66.9904 14.7164 66.2022 14.7836V15.1603H69.438V15.167ZM76.5664 15.167V14.7904C75.7782 14.7231 75.6953 14.6155 75.6953 13.5999V9.16749C75.6953 8.3402 75.7782 8.25949 76.5664 8.19223V7.81558H70.7517V8.19223C71.5744 8.25277 71.7611 8.37383 71.7611 8.8581C71.7611 10.8624 71.5053 12.4968 71.0697 13.5528C70.8208 14.1514 70.5373 14.6155 70.0119 15.0056V15.2477C70.1501 15.3083 70.4129 15.3486 70.6964 15.3486C70.966 15.3486 71.1942 15.1737 71.4154 14.7836C72.0861 13.6604 72.3834 11.3265 72.3834 8.68995C72.3834 8.34693 72.4318 8.26622 72.7982 8.26622H73.8354C74.188 8.26622 74.2018 8.3133 74.2018 8.83792V13.5932C74.2018 14.6155 74.1188 14.7164 73.3306 14.7836V15.1603H76.5664V15.167Z" fill="#00728F"/>
<path d="M23.1757 3.19505C23.1481 2.91256 23.1273 2.44174 23.1204 2.3274H20.5898V2.509C20.9909 2.54263 21.0323 2.58971 21.0323 3.12779V5.28681C21.0323 5.76435 20.9909 5.81143 20.5898 5.84506V6.03339H22.2976V5.84506C21.8275 5.81143 21.7929 5.76435 21.7929 5.28681V2.75114C21.7929 2.55608 21.7929 2.55608 22.0003 2.55608H22.2907C22.5811 2.55608 22.6917 2.60317 22.7816 2.74441C22.8577 2.85875 22.8992 3.00672 22.9752 3.21522L23.1757 3.19505ZM23.5283 2.3274V2.51573C23.8948 2.55608 23.9363 2.60317 23.9363 3.07398V5.30699C23.9363 5.7778 23.8948 5.82488 23.4938 5.86524V6.03339H25.1808V5.87196C24.7176 5.83161 24.683 5.78453 24.683 5.31371V4.49315L25.0287 4.58731C25.0909 4.58731 25.1532 4.58731 25.2361 4.57386C25.8584 4.49988 26.3977 4.1434 26.3977 3.3901C26.3977 3 26.2387 2.71078 25.969 2.54263C25.7478 2.38794 25.4574 2.3274 25.0011 2.3274H23.5283ZM24.6899 2.77131C24.6899 2.67715 24.7037 2.61662 24.7521 2.58971C24.7867 2.56281 24.842 2.53591 24.9457 2.53591C25.2569 2.53591 25.6026 2.73768 25.6026 3.417C25.6026 4.19721 25.1532 4.33173 24.9803 4.33173C24.8697 4.33173 24.7798 4.31155 24.7037 4.27792V2.77131H24.6899ZM30.076 2.3274H28.873V2.51573L29.0873 2.56281C29.2601 2.60317 29.274 2.67043 29.191 2.91256C29.0182 3.46408 28.8315 3.92145 28.6379 4.43934L27.9534 2.82512C27.8842 2.6637 27.8912 2.59644 28.0087 2.56281L28.1954 2.51573V2.3274H26.612V2.51573C26.9716 2.56954 27.0269 2.6368 27.1306 2.85875C27.2758 3.14797 27.9257 4.59404 28.064 4.89671C28.1539 5.09848 28.1954 5.22628 28.1954 5.32716C28.1954 5.54239 28.0363 5.72399 27.8981 5.72399C27.8151 5.72399 27.7114 5.67691 27.6284 5.6231C27.497 5.54912 27.3933 5.54239 27.3035 5.60293C27.2274 5.64328 27.1652 5.73744 27.1652 5.84506C27.1583 6.04684 27.3795 6.18136 27.5938 6.18136C27.8981 6.18136 28.2161 6.03339 28.5549 5.24645C28.7485 4.81599 29.2532 3.53807 29.4537 3.06725C29.6266 2.6637 29.6888 2.58299 30.076 2.51573V2.3274ZM33.9272 6.04011V5.84506C33.5262 5.81143 33.4778 5.76435 33.4778 5.233V3.12106C33.4778 2.59644 33.5262 2.54936 33.9341 2.51573V2.3274H30.2558V2.51573C30.6845 2.54936 30.7259 2.59644 30.7259 3.11434V5.233C30.7259 5.76435 30.6845 5.81143 30.2765 5.84506V6.03339H31.8944V5.84506C31.5349 5.81143 31.4934 5.76435 31.4934 5.233V2.77131C31.4934 2.56954 31.5072 2.55608 31.7077 2.55608H32.5167C32.7172 2.55608 32.7241 2.56281 32.7241 2.78477V5.233C32.7241 5.76435 32.6826 5.81143 32.3093 5.84506V6.03339H33.9272V6.04011ZM37.9789 6.04011V5.84506C37.5778 5.81143 37.5294 5.76435 37.5294 5.233V3.12106C37.5294 2.59644 37.5778 2.54936 37.9858 2.51573V2.3274H34.3075V2.51573C34.7361 2.54936 34.7776 2.59644 34.7776 3.11434V5.233C34.7776 5.76435 34.7361 5.81143 34.3282 5.84506V6.03339H35.9461V5.84506C35.5866 5.81143 35.5451 5.76435 35.5451 5.233V2.77131C35.5451 2.56954 35.5589 2.55608 35.7594 2.55608H36.5684C36.7689 2.55608 36.7758 2.56281 36.7758 2.78477V5.233C36.7758 5.76435 36.7343 5.81143 36.361 5.84506V6.03339H37.9789V6.04011ZM41.8508 6.04011V5.84506C41.5258 5.81143 41.4497 5.74417 41.27 5.233C40.9104 4.23756 40.5855 3.24885 40.2329 2.25342L39.9563 2.31395L38.8362 5.30699C38.6772 5.74417 38.5873 5.81143 38.2485 5.84506V6.03339H39.4792V5.84506C39.0782 5.79125 39.0575 5.72399 39.1473 5.4146C39.2096 5.18592 39.2787 4.99759 39.3271 4.85635H40.3435C40.4126 5.04468 40.4887 5.28008 40.5371 5.45496C40.6339 5.73744 40.5993 5.8047 40.2882 5.84506V6.03339H41.8508V6.04011ZM40.2467 4.56041H39.417C39.5622 4.1434 39.6797 3.73312 39.8318 3.30939H39.8526L40.2467 4.56041Z" fill="#00728F"/>
</g>
<defs>
<clipPath id="clip0_1_1993">
<rect width="76" height="28" fill="white" transform="translate(0.566406)"/>
</clipPath>
</defs>
</svg>
